<?xml version="1.0" ?>
<!DOCTYPE svg  PUBLIC '-//W3C//DTD SVG 1.1//EN'  'http://www.w3.org/Graphics/SVG/1.1/DTD/svg11.dtd'>
<!-- Uploaded to: SVG Repo, www.svgrepo.com, Generator: SVG Repo Mixer Tools -->
<svg fill="#000000" width="800px" height="800px" viewBox="0 0 2.33333 2.33333" style="shape-rendering:geometricPrecision; text-rendering:geometricPrecision; image-rendering:optimizeQuality; fill-rule:evenodd; clip-rule:evenodd" xml:space="preserve" xmlns="http://www.w3.org/2000/svg" xmlns:xlink="http://www.w3.org/1999/xlink">
<defs>
<style type="text/css">
   <![CDATA[
    .fil0 {fill:black}
   ]]>
  </style>
</defs>
<g id="Layer_x0020_1">
<path class="fil0" d="M0.582728 0.849358c-0.0458228,0 -0.0833189,-0.0374961 -0.0833189,-0.0833228 0,-0.0458268 0.0374961,-0.0833189 0.0833189,-0.0833189 0.0458268,0 0.0833228,0.0374921 0.0833228,0.0833189 0,0.0458268 -0.0361063,0.0833228 -0.0833228,0.0833228zm0 -0.127756c-0.0236063,0 -0.0444331,0.0194409 -0.0444331,0.0444331 0,0.0236102 0.0208307,0.044437 0.0444331,0.044437 0.0236063,0 0.044437,-0.0208307 0.044437,-0.044437 3.93701e-006,-0.0249921 -0.019437,-0.0444331 -0.044437,-0.0444331z"/>
<path class="fil0" d="M0.824358 0.849358c-0.0458268,0 -0.0833189,-0.0374961 -0.0833189,-0.0833228 0,-0.0472126 0.0374921,-0.0833189 0.0833189,-0.0833189 0.0472126,0 0.0833189,0.0374921 0.0833189,0.0833189 0,0.0458268 -0.0374921,0.0833228 -0.0833189,0.0833228zm0 -0.127756c-0.0594291,0 -0.0578189,0.0888701 0,0.0888701 0.0567362,0 0.0567362,-0.0888701 0,-0.0888701z"/>
<path class="fil0" d="M1.0646 0.849358c-0.0458268,0 -0.0833189,-0.0374961 -0.0833189,-0.0833228 0,-0.0458268 0.0374921,-0.0833189 0.0833189,-0.0833189 0.0458268,0 0.0833189,0.0374921 0.0833189,0.0833189 0,0.0458268 -0.0374921,0.0833228 -0.0833189,0.0833228zm0 -0.127756c-0.0236063,0 -0.044437,0.0194409 -0.044437,0.0444331 0,0.0236102 0.0208307,0.044437 0.044437,0.044437 0.0236063,0 0.044437,-0.0208307 0.044437,-0.044437 -0.00138976,-0.0249921 -0.0208307,-0.0444331 -0.044437,-0.0444331z"/>
<path class="fil0" d="M0.352217 1.24235c-0.0149331,0 -0.0254488,-0.0166535 -0.0180551,-0.0305512l0.10276 -0.181913c-0.0791535,-0.0736024 -0.123591,-0.168028 -0.123591,-0.265236 0,-0.223575 0.22913,-0.405488 0.511028,-0.405488 0.280508,0 0.509638,0.181913 0.509638,0.405488 0,0.223571 -0.229126,0.406878 -0.509638,0.406878 -0.0777638,0 -0.151366,-0.0124961 -0.219409,-0.0388819l-0.244402 0.108315c-0.00277953,0 -0.00555512,0.00138976 -0.00833071,0.00138976zm0.126366 -0.205524l-0.0791535 0.143031 0.194413 -0.0860984c0.00833071,-0.00416535 0.0166654,-0.00277559 0.0236063,0.00138976 0.0638819,0.0249921 0.133311,0.0374921 0.206913,0.0374921 0.259677,0 0.469366,-0.163862 0.469366,-0.36522 0,-0.201354 -0.211079,-0.367988 -0.46937,-0.367988 -0.259681,0 -0.470756,0.163858 -0.470756,0.365217 0,0.0902598 0.0416614,0.174972 0.119425,0.243016 0.0114449,0.0076811 0.0120551,0.0194016 0.00555512,0.0291614zm0.131921 0.0916535c0,0.00138583 0,0 0,0zm-0.0166654 -0.00277953c0,0 0,0 0,0zm0 0l0 0zm0 0c0,0 0,0 0,0zm0 0c0,0 0,0 0,0zm-0.119421 -0.115256c0,0 0,0 0,0zm-0.00416929 -0.00416929c0,0 0,0 0,0z"/>
<path class="fil0" d="M1.7492 1.5798c-0.0458228,0 -0.0833189,-0.0374921 -0.0833189,-0.0833189 0,-0.0458268 0.0374961,-0.0833228 0.0833189,-0.0833228 0.0458268,0 0.0833228,0.0374961 0.0833228,0.0833228 0,0.0458268 -0.0361063,0.0833189 -0.0833228,0.0833189zm0 -0.12776c-0.0236063,0 -0.0444331,0.0208307 -0.0444331,0.044437 0,0.0236024 0.0208307,0.044437 0.0444331,0.044437 0.0236063,0 0.044437,-0.0208346 0.044437,-0.044437 0,-0.0236063 -0.019437,-0.044437 -0.044437,-0.044437z"/>
<path class="fil0" d="M1.50897 1.5798c-0.0458268,0 -0.0833189,-0.0374921 -0.0833189,-0.0833189 0,-0.0458268 0.0374921,-0.0833228 0.0833189,-0.0833228 0.0458268,0 0.0833189,0.0374961 0.0833189,0.0833228 0,0.0458268 -0.0374921,0.0833189 -0.0833189,0.0833189zm0 -0.12776c-0.0236063,0 -0.0444331,0.0208307 -0.0444331,0.044437 0,0.0236024 0.0208307,0.044437 0.0444331,0.044437 0.0236063,0 0.044437,-0.0208346 0.044437,-0.044437 0,-0.0236063 -0.0208268,-0.044437 -0.044437,-0.044437z"/>
<path class="fil0" d="M1.26873 1.5798c-0.0458268,0 -0.0833189,-0.0374921 -0.0833189,-0.0833189 0,-0.0458268 0.0374921,-0.0833228 0.0833189,-0.0833228 0.0458268,0 0.0833228,0.0374961 0.0833228,0.0833228 0,0.0458268 -0.0374961,0.0833189 -0.0833228,0.0833189zm0 -0.12776c-0.0577598,0 -0.0593386,0.088874 0,0.088874 0.0567362,0 0.0567362,-0.088874 0,-0.088874z"/>
<path class="fil0" d="M1.98111 1.97417c-0.00277559,0 -0.00555512,0 -0.00833071,-0.00138976l-0.244406 -0.109705c-0.0694331,0.0263819 -0.143031,0.0388858 -0.219409,0.0388858 -0.280508,0 -0.509638,-0.181917 -0.509638,-0.405488 0,-0.223575 0.22913,-0.405488 0.509638,-0.405488 0.281902,0 0.511028,0.181913 0.511028,0.405488 0,0.0985945 -0.044437,0.191634 -0.12498,0.265232l0.10276 0.183303c0.0062126,0.0107087 0.000362205,0.0291614 -0.0166614,0.0291614zm-0.252736 -0.152752c0.00416535,0 0.00694488,0.00138583 0.0111102,0.00277559l0.194413 0.0874843 -0.0805433 -0.143031c-0.00577953,-0.00885827 -0.0039252,-0.0202913 0.00416535,-0.0277756 0.279339,-0.248736 0.0403346,-0.608232 -0.349941,-0.608232 -0.259681,0 -0.469366,0.163862 -0.469366,0.365217 0,0.201358 0.211075,0.36522 0.469366,0.36522 0.132547,0 0.208047,-0.0416575 0.220795,-0.0416575zm-0.00555512 0.0388819l0 0zm0.148587 -0.10415l0 0zm0.0138858 -0.0125c0,0 0.00138976,0.00138976 0.00138976,0.00138976 0,3.93701e-006 -0.00138976,3.93701e-006 -0.00138976,-0.00138976zm0 0c0,0 0,0 0,0zm0 0c0,0 0,0 0,0zm0 0c0,0 0,0 0,0zm0 0c0,0 0,0 0,0z"/>
</g>
</svg>