<!DOCTYPE svg PUBLIC "-//W3C//DTD SVG 1.1//EN" "http://www.w3.org/Graphics/SVG/1.1/DTD/svg11.dtd">
<!-- Uploaded to: SVG Repo, www.svgrepo.com, Transformed by: SVG Repo Mixer Tools -->
<svg fill="#ffffff" width="252px" height="252px" viewBox="0 0 32 32" xmlns="http://www.w3.org/2000/svg" stroke="#ffffff" stroke-width="0.00032">
<g id="SVGRepo_bgCarrier" stroke-width="0"/>
<g id="SVGRepo_tracerCarrier" stroke-linecap="round" stroke-linejoin="round"/>
<g id="SVGRepo_iconCarrier">
<path d="M 15 4 L 15 16 L 17 16 L 17 4 Z M 12 4.6875 C 7.347656 6.339844 4 10.785156 4 16 C 4 22.617188 9.382813 28 16 28 C 22.617188 28 28 22.617188 28 16 C 28 10.785156 24.652344 6.339844 20 4.6875 L 20 6.84375 C 23.527344 8.390625 26 11.910156 26 16 C 26 21.515625 21.515625 26 16 26 C 10.484375 26 6 21.515625 6 16 C 6 11.910156 8.472656 8.390625 12 6.84375 Z"/>
</g>
</svg>