<?xml version="1.0" encoding="iso-8859-1"?>
<!-- Uploaded to: SVG Repo, www.svgrepo.com, Generator: SVG Repo Mixer Tools -->
<!DOCTYPE svg PUBLIC "-//W3C//DTD SVG 1.1//EN" "http://www.w3.org/Graphics/SVG/1.1/DTD/svg11.dtd">
<svg fill="#000000" height="800px" width="800px" version="1.1" id="Capa_1" xmlns="http://www.w3.org/2000/svg" xmlns:xlink="http://www.w3.org/1999/xlink" 
	 viewBox="0 0 319.459 319.459" xml:space="preserve">
<g>
	<path d="M302.707,97.032l-124.686-76.3c-11.283-6.904-25.301-6.904-36.584,0l-124.686,76.3C6.419,103.356,0,114.809,0,126.924
		v141.937c0,19.323,15.721,35.044,35.044,35.044h249.371c19.323,0,35.044-15.721,35.044-35.044V126.924
		C319.459,114.809,313.04,103.356,302.707,97.032z M151.877,37.792c2.422-1.482,5.137-2.223,7.853-2.223
		c2.715,0,5.431,0.741,7.853,2.223l123.206,75.395l-94.152,61.831v-7.864c12.352-4.763,21.142-16.751,21.142-30.761v-15.071
		c0-5.523-4.478-10-10-10s-10,4.477-10,10v15.071c0,2.682-0.819,5.176-2.219,7.246c-2.226-8.225-7.755-15.104-15.075-19.115
		l8.426-15.87c2.59-4.878,0.735-10.932-4.143-13.522c-4.88-2.589-10.933-0.734-13.521,4.143l-11.391,21.454h-0.247l-11.391-21.454
		c-2.59-4.878-8.644-6.733-13.521-4.143s-6.732,8.644-4.143,13.522l8.426,15.87c-7.32,4.011-12.849,10.891-15.075,19.115
		c-1.401-2.07-2.219-4.564-2.219-7.246v-15.071c0-5.523-4.478-10-10-10s-10,4.477-10,10v15.071c0,14.01,8.79,25.998,21.142,30.761
		v7.864l-94.152-61.831L151.877,37.792z M153.823,140.729h11.813c6.065,0,11,4.935,11,11v23.345c0,6.065-4.935,11-11,11h-11.813
		c-6.065,0-11-4.935-11-11v-23.345C142.823,145.663,147.758,140.729,153.823,140.729z M284.415,283.905H35.044
		c-8.295,0-15.044-6.749-15.044-15.044V131.42l119.885,78.731c6.028,3.958,12.937,5.937,19.845,5.937s13.817-1.979,19.845-5.937
		l119.885-78.73v137.441C299.459,277.156,292.71,283.905,284.415,283.905z"/>
	<path d="M97.094,233.038h10.882c3.866,0,7-3.134,7-7s-3.134-7-7-7H97.094c-9.86,0-17.882,8.022-17.882,17.882
		s8.021,17.882,17.882,17.882c2.141,0,3.882,1.741,3.882,3.882s-1.741,3.882-3.882,3.882H86.212c-3.866,0-7,3.134-7,7s3.134,7,7,7
		h10.882c9.86,0,17.882-8.022,17.882-17.882s-8.021-17.882-17.882-17.882c-2.141,0-3.882-1.741-3.882-3.882
		S94.953,233.038,97.094,233.038z"/>
	<path d="M138.184,219.038h-10.882c-3.866,0-7,3.134-7,7v43.527c0,3.866,3.134,7,7,7s7-3.134,7-7v-14.764h3.882
		c9.86,0,17.882-8.022,17.882-17.882S148.044,219.038,138.184,219.038z M138.184,240.802h-3.882v-7.764h3.882
		c2.141,0,3.882,1.741,3.882,3.882S140.324,240.802,138.184,240.802z"/>
	<path d="M179.273,219.038c-9.86,0-17.882,8.022-17.882,17.882v32.646c0,3.866,3.134,7,7,7s7-3.134,7-7v-14.764h7.764v14.764
		c0,3.866,3.134,7,7,7s7-3.134,7-7V236.92C197.155,227.06,189.134,219.038,179.273,219.038z M175.392,240.802v-3.882
		c0-2.141,1.741-3.882,3.882-3.882s3.882,1.741,3.882,3.882v3.882H175.392z"/>
	<path d="M234.923,219.242c-3.126-0.771-6.376,0.692-7.874,3.542l-5.685,10.829l-5.685-10.829c-1.498-2.852-4.747-4.314-7.874-3.542
		c-3.127,0.771-5.324,3.576-5.324,6.796v43.527c0,3.866,3.134,7,7,7s7-3.134,7-7v-15.877c1.287,1.252,3.03,1.984,4.883,1.984
		s3.596-0.731,4.883-1.984v15.877c0,3.866,3.134,7,7,7s7-3.134,7-7v-43.527C240.247,222.818,238.05,220.013,234.923,219.242z"/>
</g>
</svg>